<mxfile>
    <diagram id="IaRLo2c_0TIBh1b2AokF" name="Page-1">
        <mxGraphModel dx="1538" dy="1538" grid="1" gridSize="10" guides="1" tooltips="1" connect="1" arrows="1" fold="1" page="1" pageScale="1" pageWidth="850" pageHeight="1100" math="0" shadow="0">
            <root>
                <mxCell id="0"/>
                <mxCell id="1" parent="0"/>
                <mxCell id="20" value="" style="rounded=0;whiteSpace=wrap;html=1;strokeColor=#666666;strokeWidth=2;fillColor=#f5f5f5;fontColor=#333333;" parent="1" vertex="1">
                    <mxGeometry width="400" height="520" as="geometry"/>
                </mxCell>
                <mxCell id="8" value="" style="rounded=1;whiteSpace=wrap;html=1;strokeColor=#080808;strokeWidth=2;fillColor=none;" parent="1" vertex="1">
                    <mxGeometry width="397" height="30" as="geometry"/>
                </mxCell>
                <mxCell id="9" value="" style="rounded=1;whiteSpace=wrap;html=1;strokeWidth=2;fontColor=#ffffff;fillColor=none;strokeColor=#2D7600;" parent="1" vertex="1">
                    <mxGeometry x="260" width="136" height="30" as="geometry"/>
                </mxCell>
                <mxCell id="10" value="Header" style="text;html=1;align=center;verticalAlign=middle;whiteSpace=wrap;rounded=0;fontColor=#080808;" parent="1" vertex="1">
                    <mxGeometry x="159" y="5" width="40" height="20" as="geometry"/>
                </mxCell>
                <mxCell id="11" value="" style="rounded=1;whiteSpace=wrap;html=1;strokeColor=#2D7600;strokeWidth=2;fillColor=none;" parent="1" vertex="1">
                    <mxGeometry y="5" width="50" height="20" as="geometry"/>
                </mxCell>
                <mxCell id="12" value="Logo" style="text;html=1;strokeColor=none;fillColor=none;align=center;verticalAlign=middle;whiteSpace=wrap;rounded=0;fontColor=#080808;" parent="1" vertex="1">
                    <mxGeometry x="5" y="5" width="40" height="20" as="geometry"/>
                </mxCell>
                <mxCell id="13" value="" style="rounded=1;whiteSpace=wrap;html=1;strokeColor=#001DBC;strokeWidth=2;fontColor=#ffffff;fillColor=none;" parent="1" vertex="1">
                    <mxGeometry x="270" y="5" width="40" height="20" as="geometry"/>
                </mxCell>
                <mxCell id="14" value="" style="rounded=1;whiteSpace=wrap;html=1;strokeColor=#001DBC;strokeWidth=2;fontColor=#ffffff;fillColor=none;" parent="1" vertex="1">
                    <mxGeometry x="310" y="5" width="40" height="20" as="geometry"/>
                </mxCell>
                <mxCell id="15" value="" style="rounded=1;whiteSpace=wrap;html=1;strokeColor=#001DBC;strokeWidth=2;fontColor=#ffffff;fillColor=none;" parent="1" vertex="1">
                    <mxGeometry x="350" y="5" width="40" height="20" as="geometry"/>
                </mxCell>
                <mxCell id="16" value="NAV" style="text;html=1;strokeColor=none;fillColor=none;align=center;verticalAlign=middle;whiteSpace=wrap;rounded=0;fontColor=#2D7600;" parent="1" vertex="1">
                    <mxGeometry x="238.5" y="5" width="40" height="20" as="geometry"/>
                </mxCell>
                <mxCell id="17" value="" style="rounded=1;whiteSpace=wrap;html=1;strokeWidth=2;fillColor=none;strokeColor=#080808;" parent="1" vertex="1">
                    <mxGeometry x="5" y="30" width="170" height="20" as="geometry"/>
                </mxCell>
                <mxCell id="18" value="" style="rounded=1;whiteSpace=wrap;html=1;strokeWidth=2;fillColor=none;strokeColor=#080808;" parent="1" vertex="1">
                    <mxGeometry x="9" y="52" width="161" height="20" as="geometry"/>
                </mxCell>
                <mxCell id="21" value="" style="rounded=0;whiteSpace=wrap;html=1;strokeColor=#080808;strokeWidth=2;fillColor=none;fontColor=#2D7600;" parent="1" vertex="1">
                    <mxGeometry x="10" y="72" width="268.5" height="20" as="geometry"/>
                </mxCell>
                <mxCell id="22" value="" style="rounded=0;whiteSpace=wrap;html=1;strokeColor=#080808;strokeWidth=2;fillColor=none;fontColor=#2D7600;" parent="1" vertex="1">
                    <mxGeometry x="11.5" y="92" width="148.5" height="20" as="geometry"/>
                </mxCell>
                <mxCell id="24" value="" style="rounded=1;whiteSpace=wrap;html=1;strokeColor=#080808;strokeWidth=2;fillColor=none;fontColor=#2D7600;" parent="1" vertex="1">
                    <mxGeometry x="9" y="120" width="248.5" height="170" as="geometry"/>
                </mxCell>
                <mxCell id="26" value="" style="rounded=0;whiteSpace=wrap;html=1;strokeColor=#080808;strokeWidth=2;fillColor=none;fontColor=#2D7600;" parent="1" vertex="1">
                    <mxGeometry x="268" y="120" width="120" height="170" as="geometry"/>
                </mxCell>
                <mxCell id="27" value="" style="rounded=0;whiteSpace=wrap;html=1;fillColor=none;strokeColor=#080808;" vertex="1" parent="1">
                    <mxGeometry x="11.5" y="320" width="378.5" height="130" as="geometry"/>
                </mxCell>
                <mxCell id="30" value="" style="rounded=0;whiteSpace=wrap;html=1;strokeColor=#080808;fillColor=none;" vertex="1" parent="1">
                    <mxGeometry y="460" width="400" height="60" as="geometry"/>
                </mxCell>
                <mxCell id="31" value="" style="rounded=0;whiteSpace=wrap;html=1;strokeColor=#2D7600;fontColor=#ffffff;fillColor=none;" vertex="1" parent="1">
                    <mxGeometry x="20" y="130" width="90" height="10" as="geometry"/>
                </mxCell>
                <mxCell id="32" value="" style="rounded=0;whiteSpace=wrap;html=1;strokeColor=#2D7600;fontColor=#ffffff;fillColor=none;" vertex="1" parent="1">
                    <mxGeometry x="268" y="130" width="90" height="10" as="geometry"/>
                </mxCell>
                <mxCell id="34" value="" style="rounded=0;whiteSpace=wrap;html=1;strokeColor=#080808;fillColor=none;" vertex="1" parent="1">
                    <mxGeometry x="40" y="72" width="230" height="18" as="geometry"/>
                </mxCell>
                <mxCell id="36" value="" style="rounded=1;whiteSpace=wrap;html=1;strokeColor=#006EAF;fontColor=#ffffff;fillColor=none;" vertex="1" parent="1">
                    <mxGeometry x="23" y="144" width="70" height="56" as="geometry"/>
                </mxCell>
                <mxCell id="37" value="" style="rounded=1;whiteSpace=wrap;html=1;strokeColor=#006EAF;fontColor=#ffffff;fillColor=none;" vertex="1" parent="1">
                    <mxGeometry x="100" y="144" width="70" height="56" as="geometry"/>
                </mxCell>
                <mxCell id="38" value="" style="rounded=1;whiteSpace=wrap;html=1;strokeColor=#006EAF;fontColor=#ffffff;fillColor=none;" vertex="1" parent="1">
                    <mxGeometry x="175" y="144" width="70" height="56" as="geometry"/>
                </mxCell>
                <mxCell id="39" value="" style="rounded=1;whiteSpace=wrap;html=1;strokeColor=#006EAF;fontColor=#ffffff;fillColor=none;" vertex="1" parent="1">
                    <mxGeometry x="23" y="210" width="70" height="56" as="geometry"/>
                </mxCell>
                <mxCell id="40" value="" style="rounded=1;whiteSpace=wrap;html=1;strokeColor=#006EAF;fontColor=#ffffff;fillColor=none;" vertex="1" parent="1">
                    <mxGeometry x="100" y="210" width="70" height="56" as="geometry"/>
                </mxCell>
                <mxCell id="41" value="" style="rounded=1;whiteSpace=wrap;html=1;strokeColor=#006EAF;fontColor=#ffffff;fillColor=none;" vertex="1" parent="1">
                    <mxGeometry x="175" y="210" width="70" height="56" as="geometry"/>
                </mxCell>
                <mxCell id="42" value="" style="rounded=1;whiteSpace=wrap;html=1;strokeColor=#2D7600;fontColor=#ffffff;fillColor=none;" vertex="1" parent="1">
                    <mxGeometry x="20" y="142" width="230" height="128" as="geometry"/>
                </mxCell>
                <mxCell id="43" value="" style="rounded=1;whiteSpace=wrap;html=1;strokeColor=#2D7600;fontColor=#ffffff;fillColor=none;" vertex="1" parent="1">
                    <mxGeometry x="280" y="142" width="90" height="38" as="geometry"/>
                </mxCell>
                <mxCell id="44" value="" style="rounded=1;whiteSpace=wrap;html=1;strokeColor=#2D7600;fontColor=#ffffff;fillColor=none;" vertex="1" parent="1">
                    <mxGeometry x="278.5" y="194" width="90" height="38" as="geometry"/>
                </mxCell>
                <mxCell id="45" value="" style="rounded=1;whiteSpace=wrap;html=1;strokeColor=#2D7600;fontColor=#ffffff;fillColor=none;" vertex="1" parent="1">
                    <mxGeometry x="280" y="241" width="90" height="38" as="geometry"/>
                </mxCell>
                <mxCell id="46" value="" style="rounded=0;whiteSpace=wrap;html=1;strokeColor=#080808;fillColor=none;" vertex="1" parent="1">
                    <mxGeometry x="20" y="270" width="40" height="10" as="geometry"/>
                </mxCell>
                <mxCell id="47" value="" style="rounded=0;whiteSpace=wrap;html=1;strokeColor=#080808;fillColor=none;" vertex="1" parent="1">
                    <mxGeometry x="11.5" y="306" width="68.5" height="10" as="geometry"/>
                </mxCell>
                <mxCell id="49" value="" style="rounded=1;whiteSpace=wrap;html=1;strokeColor=#2D7600;fontColor=#ffffff;fillColor=none;" vertex="1" parent="1">
                    <mxGeometry x="11.5" y="320" width="88.5" height="120" as="geometry"/>
                </mxCell>
                <mxCell id="50" value="" style="rounded=1;whiteSpace=wrap;html=1;strokeColor=#2D7600;fontColor=#ffffff;fillColor=none;" vertex="1" parent="1">
                    <mxGeometry x="201" y="320" width="88.5" height="120" as="geometry"/>
                </mxCell>
                <mxCell id="51" value="" style="rounded=1;whiteSpace=wrap;html=1;strokeColor=#2D7600;fontColor=#ffffff;fillColor=none;" vertex="1" parent="1">
                    <mxGeometry x="299.5" y="320" width="80.5" height="55" as="geometry"/>
                </mxCell>
                <mxCell id="52" value="" style="rounded=1;whiteSpace=wrap;html=1;strokeColor=#2D7600;fontColor=#ffffff;fillColor=none;" vertex="1" parent="1">
                    <mxGeometry x="299.5" y="385" width="80.5" height="55" as="geometry"/>
                </mxCell>
                <mxCell id="53" value="" style="rounded=1;whiteSpace=wrap;html=1;strokeColor=#2D7600;fontColor=#ffffff;fillColor=none;" vertex="1" parent="1">
                    <mxGeometry x="111" y="399" width="80" height="40" as="geometry"/>
                </mxCell>
                <mxCell id="54" value="" style="rounded=1;whiteSpace=wrap;html=1;strokeColor=#2D7600;fontColor=#ffffff;fillColor=none;" vertex="1" parent="1">
                    <mxGeometry x="110" y="320" width="80" height="65" as="geometry"/>
                </mxCell>
                <mxCell id="57" value="" style="rounded=1;whiteSpace=wrap;html=1;strokeColor=#2D7600;fontColor=#ffffff;fillColor=none;" vertex="1" parent="1">
                    <mxGeometry y="460" width="80" height="60" as="geometry"/>
                </mxCell>
                <mxCell id="58" value="" style="rounded=1;whiteSpace=wrap;html=1;strokeColor=#2D7600;fontColor=#ffffff;fillColor=none;" vertex="1" parent="1">
                    <mxGeometry x="130" y="460" width="80" height="60" as="geometry"/>
                </mxCell>
                <mxCell id="59" value="" style="rounded=1;whiteSpace=wrap;html=1;strokeColor=#2D7600;fontColor=#ffffff;fillColor=none;" vertex="1" parent="1">
                    <mxGeometry x="245" y="460" width="80" height="60" as="geometry"/>
                </mxCell>
                <mxCell id="60" value="" style="rounded=1;whiteSpace=wrap;html=1;strokeColor=#080808;fillColor=none;" vertex="1" parent="1">
                    <mxGeometry x="220" y="380" width="120" height="60" as="geometry"/>
                </mxCell>
            </root>
        </mxGraphModel>
    </diagram>
</mxfile>